<?xml version="1.0" encoding="UTF-8"?>
<svg xmlns="http://www.w3.org/2000/svg" width="24" height="24" viewBox="0 0 24 24">
  <path d="M19.554 9.488c.121.563.106 1.246-.04 2.051-.582 2.978-2.477 4.466-5.683 4.466h-.442a.666.666 0 0 0-.444.166.72.72 0 0 0-.239.427l-.498 2.642a.585.585 0 0 1-.207.33.62.62 0 0 1-.383.126H8.957a.516.516 0 0 1-.453-.249.506.506 0 0 1-.015-.479l.984-5.438-.015.026a.954.954 0 0 1 .329-.563.945.945 0 0 1 .609-.216h1.273c2.682 0 4.796-1.146 5.327-4.213.2-1.143.086-2.097-.384-2.758a2.224 2.224 0 0 0-.312-.321l.047-.046a3.798 3.798 0 0 1 1.31 1.023c.51.642.782 1.463.782 2.453zm-2.208-2.09c-.219-.618-.652-1.097-1.302-1.43-.642-.327-1.48-.501-2.518-.501h-3.32a1.183 1.183 0 0 0-.778.276c-.22.21-.336.486-.342.788L7.937 14.43l-.626 3.356a.797.797 0 0 0 .18.639.76.76 0 0 0 .601.28h2.585a.893.893 0 0 0 .886-.759l.22-1.125.417-2.235.026-.041a.92.92 0 0 1 .912-.76h.581c2.829 0 5.055-1.218 5.703-4.75.026-.149.094-.863.02-1.202-.032-.937-.568-1.748-1.663-2.342 0 .001-.194-.09-.392-.192z" fill="#003087"/>
  <path d="M18.887 7.623c-.033-.935-.569-1.745-1.664-2.342-.194-.101-.392-.19-.392-.19-.22-.62-.652-1.1-1.302-1.433-.642-.329-1.48-.5-2.518-.5h-3.318a1.183 1.183 0 0 0-.78.276c-.219.209-.335.486-.34.787L7.386 12l1.656-8.797a.777.777 0 0 1 .768-.703h3.32c1.037 0 1.875.172 2.517.5.65.332 1.082.814 1.302 1.433 0 0 .2.091.392.19 1.096.597 1.631 1.407 1.664 2.342l-.118-.342z" fill="#003087"/>
  <path d="M7.386 12l.16-.841.977-5.18c.005-.3.121-.578.34-.787.218-.21.487-.277.78-.276h3.318c1.038 0 1.876.171 2.518.5.651.332 1.082.813 1.303 1.433 0 0 .198.089.392.19.8.438 1.302.974 1.508 1.6.193.587.156 1.27-.09 2.052-.583 2.978-2.477 4.467-5.682 4.467h-.442a.666.666 0 0 0-.444.166.72.72 0 0 0-.239.427l-.498 2.642a.585.585 0 0 1-.207.33.62.62 0 0 1-.383.126H8.957a.516.516 0 0 1-.453-.249.506.506 0 0 1-.015-.479l.626-3.356L7.386 12z" fill="#FFF"/>
  <path d="M8.365 12.215l-.48.254-.52.032-.984 5.438c-.55.287.024.483.015.478a.516.516 0 0 0 .452.249h2.661c.284 0 .525-.198.574-.48l.04-.13.775-4.114.05-.23c.05-.28.29-.479.575-.479h.361c2.543 0 4.541-1.088 5.126-4.23.244-1.298.065-2.218-.84-2.928a2.697 2.697 0 0 0-.792-.552c-.097-.047-.201-.089-.31-.128-.11-.04-.226-.079-.343-.115-.24-.072-.516-.133-.831-.184a9.58 9.58 0 0 0-1.602-.123h-3.787c-.083 0-.165.01-.243.028a.883.883 0 0 0-.668.555l-1.532 8.15-.047.254-.001.01z" fill="#0070E0"/>
</svg>
